<svg xmlns="http://www.w3.org/2000/svg" xmlns:xlink="http://www.w3.org/1999/xlink" width="40" zoomAndPan="magnify" viewBox="0 0 30 30.000001" height="40" preserveAspectRatio="xMidYMid meet" version="1.0"><defs><clipPath id="id1"><path d="M 16 9 L 19 9 L 19 13.789062 L 16 13.789062 Z M 16 9 " clip-rule="nonzero"/></clipPath><clipPath id="id2"><path d="M 3 9 L 6 9 L 6 13.789062 L 3 13.789062 Z M 3 9 " clip-rule="nonzero"/></clipPath><clipPath id="id3"><path d="M 0.484375 6 L 21.53125 6 L 21.53125 13 L 0.484375 13 Z M 0.484375 6 " clip-rule="nonzero"/></clipPath></defs><g clip-path="url(#id1)"><path fill="#113747" d="M 18.234375 11.4375 C 18.808594 12.515625 19.054688 13.503906 18.785156 13.648438 C 18.519531 13.792969 17.839844 13.035156 17.269531 11.957031 C 16.699219 10.878906 16.453125 9.886719 16.71875 9.746094 C 16.984375 9.601562 17.664062 10.355469 18.234375 11.4375 " fill-opacity="1" fill-rule="nonzero"/></g><g clip-path="url(#id2)"><path fill="#113747" d="M 4.742188 11.957031 C 5.3125 10.878906 5.558594 9.886719 5.289062 9.746094 C 5.023438 9.601562 4.34375 10.355469 3.773438 11.4375 C 3.203125 12.515625 2.957031 13.503906 3.222656 13.648438 C 3.488281 13.792969 4.167969 13.035156 4.742188 11.957031 " fill-opacity="1" fill-rule="nonzero"/></g><path fill="#8fdadc" d="M 17.550781 8.6875 C 17.699219 8.121094 17.777344 7.527344 17.777344 6.910156 C 17.777344 3.09375 14.714844 0.00390625 10.9375 0.00390625 C 7.15625 0.00390625 4.09375 3.09375 4.09375 6.910156 C 4.09375 7.527344 4.171875 8.121094 4.320312 8.6875 L 17.550781 8.6875 " fill-opacity="1" fill-rule="nonzero"/><path fill="#ffffff" d="M 10.773438 0.691406 C 9.21875 0.691406 7.808594 1.328125 6.789062 2.355469 C 5.773438 3.382812 5.140625 4.808594 5.140625 6.375 C 5.140625 6.523438 5.257812 6.640625 5.402344 6.640625 C 5.550781 6.640625 5.667969 6.523438 5.667969 6.375 C 5.667969 4.953125 6.238281 3.664062 7.164062 2.730469 C 8.085938 1.796875 9.359375 1.222656 10.773438 1.222656 C 10.917969 1.222656 11.035156 1.101562 11.035156 0.957031 C 11.035156 0.808594 10.917969 0.691406 10.773438 0.691406 " fill-opacity="1" fill-rule="nonzero"/><g clip-path="url(#id3)"><path fill="#80cc28" d="M 17.730469 6.734375 C 16.015625 7.28125 13.730469 7.75 10.925781 7.75 C 7.964844 7.75 5.722656 7.320312 4.085938 6.796875 C 1.894531 7.566406 0.511719 8.691406 0.511719 9.949219 L 0.511719 9.953125 C 0.511719 9.953125 3.40625 12.71875 10.925781 12.71875 C 17.765625 12.71875 21.5 9.953125 21.5 9.953125 L 21.5 9.949219 C 21.5 8.65625 20.035156 7.5 17.730469 6.734375 " fill-opacity="1" fill-rule="nonzero"/></g><path fill="#69a820" d="M 1.6875 8.4375 C 3.03125 9.242188 5.953125 10.519531 10.972656 10.515625 C 15.628906 10.515625 18.8125 9.199219 20.3125 8.402344 C 20.421875 8.34375 20.460938 8.210938 20.40625 8.101562 C 20.347656 7.992188 20.214844 7.949219 20.109375 8.007812 C 18.65625 8.777344 15.546875 10.070312 10.972656 10.074219 C 6.027344 10.070312 3.191406 8.820312 1.910156 8.054688 C 1.804688 7.992188 1.671875 8.023438 1.609375 8.128906 C 1.546875 8.238281 1.582031 8.371094 1.6875 8.4375 " fill-opacity="1" fill-rule="nonzero"/><path fill="#113747" d="M 5.207031 9.25 C 5.207031 9.898438 4.6875 10.421875 4.046875 10.421875 C 3.40625 10.421875 2.886719 9.898438 2.886719 9.25 C 2.886719 8.601562 3.40625 8.078125 4.046875 8.078125 C 4.6875 8.078125 5.207031 8.601562 5.207031 9.25 " fill-opacity="1" fill-rule="nonzero"/><path fill="#fcd205" d="M 4.046875 10.101562 C 3.582031 10.101562 3.203125 9.71875 3.203125 9.25 C 3.203125 8.78125 3.582031 8.398438 4.046875 8.398438 C 4.511719 8.398438 4.890625 8.78125 4.890625 9.25 C 4.890625 9.71875 4.511719 10.101562 4.046875 10.101562 " fill-opacity="1" fill-rule="nonzero"/><path fill="#ffffff" d="M 4.046875 8.359375 C 3.558594 8.359375 3.164062 8.757812 3.164062 9.25 C 3.164062 9.742188 3.558594 10.140625 4.046875 10.140625 C 4.535156 10.140625 4.929688 9.742188 4.929688 9.25 C 4.929688 8.757812 4.535156 8.359375 4.046875 8.359375 Z M 4.046875 8.4375 C 4.492188 8.4375 4.851562 8.800781 4.851562 9.25 C 4.851562 9.699219 4.492188 10.0625 4.046875 10.0625 C 3.601562 10.0625 3.242188 9.699219 3.242188 9.25 C 3.242188 8.800781 3.601562 8.4375 4.046875 8.4375 " fill-opacity="1" fill-rule="nonzero"/><path fill="#113747" d="M 19.121094 9.25 C 19.121094 9.898438 18.605469 10.421875 17.960938 10.421875 C 17.320312 10.421875 16.800781 9.898438 16.800781 9.25 C 16.800781 8.601562 17.320312 8.078125 17.960938 8.078125 C 18.605469 8.078125 19.121094 8.601562 19.121094 9.25 " fill-opacity="1" fill-rule="nonzero"/><path fill="#fcd205" d="M 17.960938 10.101562 C 17.496094 10.101562 17.117188 9.71875 17.117188 9.25 C 17.117188 8.78125 17.496094 8.398438 17.960938 8.398438 C 18.429688 8.398438 18.804688 8.78125 18.804688 9.25 C 18.804688 9.71875 18.429688 10.101562 17.960938 10.101562 " fill-opacity="1" fill-rule="nonzero"/><path fill="#ffffff" d="M 17.960938 8.359375 C 17.476562 8.359375 17.078125 8.757812 17.078125 9.25 C 17.078125 9.742188 17.476562 10.140625 17.960938 10.140625 C 18.449219 10.140625 18.84375 9.742188 18.84375 9.25 C 18.84375 8.757812 18.449219 8.359375 17.960938 8.359375 Z M 17.960938 8.4375 C 18.40625 8.4375 18.765625 8.800781 18.765625 9.25 C 18.765625 9.699219 18.40625 10.0625 17.960938 10.0625 C 17.519531 10.0625 17.15625 9.699219 17.15625 9.25 C 17.15625 8.800781 17.519531 8.4375 17.960938 8.4375 " fill-opacity="1" fill-rule="nonzero"/><path fill="#113747" d="M 12.164062 10.292969 C 12.164062 10.941406 11.644531 11.464844 11.003906 11.464844 C 10.363281 11.464844 9.84375 10.941406 9.84375 10.292969 C 9.84375 9.648438 10.363281 9.121094 11.003906 9.121094 C 11.644531 9.121094 12.164062 9.648438 12.164062 10.292969 " fill-opacity="1" fill-rule="nonzero"/><path fill="#fcd205" d="M 11.003906 11.148438 C 10.539062 11.148438 10.160156 10.765625 10.160156 10.292969 C 10.160156 9.824219 10.539062 9.441406 11.003906 9.441406 C 11.46875 9.441406 11.847656 9.824219 11.847656 10.292969 C 11.847656 10.765625 11.46875 11.148438 11.003906 11.148438 " fill-opacity="1" fill-rule="nonzero"/><path fill="#ffffff" d="M 11.003906 9.402344 C 10.519531 9.402344 10.121094 9.804688 10.121094 10.292969 C 10.121094 10.785156 10.519531 11.1875 11.003906 11.1875 C 11.492188 11.1875 11.886719 10.785156 11.886719 10.292969 C 11.886719 9.804688 11.492188 9.402344 11.003906 9.402344 Z M 11.003906 9.480469 C 11.449219 9.480469 11.808594 9.847656 11.808594 10.292969 C 11.808594 10.742188 11.449219 11.109375 11.003906 11.109375 C 10.558594 11.109375 10.199219 10.742188 10.199219 10.292969 C 10.199219 9.847656 10.558594 9.480469 11.003906 9.480469 " fill-opacity="1" fill-rule="nonzero"/></svg>