<svg xmlns="http://www.w3.org/2000/svg" xmlns:xlink="http://www.w3.org/1999/xlink" width="40" zoomAndPan="magnify" viewBox="0 0 30 30.000001" height="40" preserveAspectRatio="xMidYMid meet" version="1.0"><defs><clipPath id="id1"><path d="M 11 10 L 22.257812 10 L 22.257812 21.046875 L 11 21.046875 Z M 11 10 " clip-rule="nonzero"/></clipPath><clipPath id="id2"><path d="M 3.386719 0 L 18 0 L 18 16 L 3.386719 16 Z M 3.386719 0 " clip-rule="nonzero"/></clipPath><clipPath id="id3"><path d="M 3.386719 0 L 7 0 L 7 4 L 3.386719 4 Z M 3.386719 0 " clip-rule="nonzero"/></clipPath><clipPath id="id4"><path d="M 3.386719 0 L 8 0 L 8 4 L 3.386719 4 Z M 3.386719 0 " clip-rule="nonzero"/></clipPath></defs><path fill="#f5834c" d="M 18.132812 20.785156 C 16.957031 20.785156 15.921875 20.640625 15.0625 20.363281 C 14.957031 20.328125 14.882812 20.226562 14.882812 20.113281 C 14.867188 19.425781 14.832031 18.742188 14.765625 18.089844 C 14.640625 18.007812 14.566406 17.984375 14.53125 17.976562 C 14.511719 18.074219 14.53125 18.359375 14.777344 18.910156 C 14.8125 18.988281 14.808594 19.082031 14.765625 19.15625 C 14.722656 19.230469 14.644531 19.277344 14.558594 19.285156 C 14.355469 19.300781 14.160156 19.304688 13.976562 19.304688 C 13.398438 19.304688 12.890625 19.234375 12.464844 19.097656 C 12.359375 19.0625 12.285156 18.964844 12.285156 18.851562 C 12.261719 17.691406 12.089844 16.644531 11.765625 15.738281 C 11.730469 15.632812 11.757812 15.519531 11.84375 15.445312 L 12.386719 14.980469 C 12.433594 14.941406 12.492188 14.917969 12.554688 14.917969 C 12.597656 14.917969 12.644531 14.929688 12.6875 14.953125 C 12.71875 14.972656 12.753906 14.984375 12.800781 14.984375 C 13.019531 14.984375 13.328125 14.757812 13.550781 14.433594 C 13.777344 14.109375 13.867188 13.757812 13.78125 13.519531 C 13.746094 13.414062 13.777344 13.300781 13.859375 13.226562 L 14.992188 12.253906 C 15.042969 12.214844 15.101562 12.191406 15.164062 12.191406 C 15.207031 12.191406 15.253906 12.207031 15.292969 12.226562 C 15.382812 12.28125 15.496094 12.308594 15.625 12.308594 C 16.039062 12.308594 16.570312 12.03125 16.808594 11.691406 C 16.871094 11.597656 16.9375 11.460938 16.894531 11.34375 C 16.859375 11.242188 16.890625 11.125 16.972656 11.054688 L 17.515625 10.585938 C 17.5625 10.546875 17.625 10.523438 17.6875 10.523438 C 17.730469 10.523438 17.777344 10.535156 17.816406 10.558594 C 18.632812 11.035156 19.628906 11.375 20.78125 11.570312 C 20.890625 11.589844 20.980469 11.679688 20.996094 11.792969 C 21.082031 12.382812 21.027344 13.097656 20.832031 13.914062 C 20.8125 14 20.75 14.066406 20.671875 14.097656 C 20.640625 14.109375 20.609375 14.117188 20.578125 14.117188 C 20.523438 14.117188 20.472656 14.101562 20.429688 14.070312 C 19.902344 13.710938 19.652344 13.683594 19.585938 13.683594 L 19.578125 13.683594 C 19.578125 13.722656 19.585938 13.808594 19.652344 13.964844 C 20.273438 14.125 20.921875 14.261719 21.582031 14.371094 C 21.695312 14.390625 21.78125 14.480469 21.796875 14.59375 C 21.96875 15.789062 21.855469 17.246094 21.460938 18.917969 C 21.4375 19 21.378906 19.070312 21.300781 19.101562 C 21.269531 19.113281 21.238281 19.121094 21.203125 19.121094 C 21.152344 19.121094 21.101562 19.105469 21.058594 19.074219 C 20.441406 18.652344 19.910156 18.421875 19.554688 18.421875 C 19.34375 18.421875 19.269531 18.503906 19.230469 18.566406 C 19.160156 18.671875 18.984375 19.117188 19.550781 20.367188 C 19.585938 20.445312 19.582031 20.539062 19.539062 20.613281 C 19.492188 20.6875 19.417969 20.734375 19.332031 20.742188 C 18.917969 20.769531 18.515625 20.785156 18.132812 20.785156 " fill-opacity="1" fill-rule="nonzero"/><g clip-path="url(#id1)"><path fill="#3f5182" d="M 17.6875 10.261719 C 17.5625 10.261719 17.445312 10.300781 17.347656 10.386719 L 16.804688 10.851562 C 16.640625 10.992188 16.578125 11.222656 16.648438 11.429688 C 16.632812 11.59375 16.125 12.042969 15.625 12.042969 C 15.542969 12.042969 15.472656 12.027344 15.421875 12 C 15.34375 11.953125 15.253906 11.929688 15.164062 11.929688 C 15.042969 11.929688 14.921875 11.96875 14.824219 12.054688 L 13.691406 13.027344 C 13.523438 13.167969 13.460938 13.402344 13.535156 13.609375 C 13.589844 13.761719 13.511719 14.03125 13.339844 14.28125 C 13.128906 14.585938 12.890625 14.714844 12.804688 14.71875 C 12.726562 14.675781 12.640625 14.652344 12.554688 14.652344 C 12.433594 14.652344 12.3125 14.695312 12.214844 14.777344 L 11.671875 15.246094 C 11.507812 15.386719 11.445312 15.621094 11.519531 15.828125 C 11.832031 16.707031 12 17.722656 12.023438 18.855469 C 12.027344 19.082031 12.171875 19.28125 12.382812 19.351562 C 12.835938 19.496094 13.371094 19.570312 13.976562 19.570312 C 14.167969 19.570312 14.371094 19.5625 14.578125 19.550781 L 14.601562 19.546875 C 14.609375 19.738281 14.617188 19.929688 14.621094 20.121094 C 14.625 20.347656 14.769531 20.546875 14.984375 20.613281 C 15.867188 20.902344 16.929688 21.050781 18.132812 21.050781 C 18.519531 21.050781 18.929688 21.035156 19.347656 21.003906 C 19.519531 20.992188 19.675781 20.898438 19.761719 20.746094 C 19.851562 20.597656 19.859375 20.414062 19.789062 20.253906 C 19.246094 19.054688 19.445312 18.710938 19.449219 18.707031 C 19.460938 18.691406 19.523438 18.6875 19.554688 18.6875 C 19.695312 18.6875 20.109375 18.746094 20.910156 19.296875 C 21 19.355469 21.101562 19.386719 21.203125 19.386719 C 21.269531 19.386719 21.332031 19.375 21.394531 19.351562 C 21.554688 19.285156 21.671875 19.148438 21.714844 18.980469 C 22.117188 17.273438 22.234375 15.785156 22.054688 14.558594 C 22.023438 14.328125 21.847656 14.148438 21.625 14.113281 C 21.441406 14.082031 21.257812 14.046875 21.074219 14.011719 C 21.078125 14 21.082031 13.988281 21.085938 13.976562 C 21.289062 13.125 21.34375 12.378906 21.253906 11.753906 C 21.222656 11.527344 21.046875 11.347656 20.824219 11.308594 C 19.703125 11.121094 18.734375 10.789062 17.945312 10.332031 C 17.867188 10.285156 17.773438 10.261719 17.6875 10.261719 M 17.6875 10.789062 C 18.53125 11.28125 19.550781 11.628906 20.738281 11.832031 C 20.816406 12.390625 20.765625 13.0625 20.578125 13.851562 C 20.15625 13.5625 19.808594 13.417969 19.585938 13.417969 C 19.292969 13.417969 19.214844 13.671875 19.464844 14.1875 C 20.125 14.363281 20.816406 14.511719 21.539062 14.632812 C 21.707031 15.800781 21.59375 17.207031 21.203125 18.855469 C 20.511719 18.378906 19.953125 18.15625 19.554688 18.15625 C 18.792969 18.15625 18.640625 18.992188 19.3125 20.476562 C 18.902344 20.503906 18.511719 20.519531 18.132812 20.519531 C 16.976562 20.519531 15.980469 20.382812 15.144531 20.109375 C 15.128906 19.359375 15.085938 18.636719 15.015625 17.9375 C 14.796875 17.78125 14.625 17.707031 14.503906 17.707031 C 14.171875 17.707031 14.183594 18.234375 14.539062 19.019531 C 14.34375 19.035156 14.15625 19.042969 13.976562 19.042969 C 13.421875 19.042969 12.945312 18.976562 12.546875 18.84375 C 12.523438 17.648438 12.34375 16.582031 12.011719 15.648438 L 12.554688 15.183594 C 12.628906 15.226562 12.710938 15.246094 12.800781 15.246094 C 13.4375 15.246094 14.285156 14.152344 14.027344 13.429688 L 15.164062 12.457031 C 15.296875 12.539062 15.457031 12.570312 15.625 12.570312 C 16.394531 12.570312 17.351562 11.835938 17.140625 11.253906 L 17.6875 10.789062 " fill-opacity="1" fill-rule="nonzero"/></g><path fill="#f14d2a" d="M 18.136719 20.519531 C 17.371094 20.519531 16.675781 20.460938 16.050781 20.339844 C 17.546875 18.234375 18.015625 15.527344 17.382812 13.050781 L 17.523438 12.929688 C 17.546875 12.910156 17.566406 12.890625 17.585938 12.867188 C 17.613281 12.851562 17.640625 12.832031 17.664062 12.8125 L 19.175781 11.519531 C 19.195312 11.503906 19.210938 11.484375 19.226562 11.46875 C 19.695312 11.617188 20.199219 11.738281 20.738281 11.832031 C 20.761719 12 20.773438 12.179688 20.773438 12.367188 C 20.773438 12.804688 20.707031 13.300781 20.578125 13.851562 C 20.15625 13.5625 19.808594 13.417969 19.585938 13.417969 C 19.292969 13.417969 19.214844 13.671875 19.464844 14.1875 C 20.125 14.363281 20.816406 14.511719 21.539062 14.632812 C 21.589844 14.984375 21.613281 15.359375 21.613281 15.753906 C 21.613281 16.671875 21.476562 17.703125 21.203125 18.855469 C 20.511719 18.378906 19.953125 18.15625 19.554688 18.15625 C 18.792969 18.15625 18.640625 18.992188 19.3125 20.476562 C 18.902344 20.503906 18.511719 20.519531 18.136719 20.519531 " fill-opacity="1" fill-rule="nonzero"/><path fill="#473e48" d="M 19.3125 20.476562 C 18.640625 18.992188 18.792969 18.15625 19.554688 18.15625 C 19.953125 18.15625 20.511719 18.378906 21.203125 18.855469 C 21.476562 17.703125 21.613281 16.671875 21.613281 15.753906 C 21.613281 16.671875 21.476562 17.703125 21.203125 18.855469 C 20.511719 18.378906 19.953125 18.15625 19.554688 18.15625 C 18.792969 18.15625 18.640625 18.992188 19.3125 20.476562 M 19.464844 14.1875 C 19.214844 13.671875 19.292969 13.417969 19.585938 13.417969 C 19.808594 13.417969 20.15625 13.5625 20.578125 13.851562 C 20.707031 13.300781 20.773438 12.804688 20.773438 12.367188 C 20.773438 12.804688 20.707031 13.300781 20.578125 13.851562 C 20.15625 13.5625 19.808594 13.417969 19.585938 13.417969 C 19.292969 13.417969 19.214844 13.671875 19.464844 14.1875 " fill-opacity="1" fill-rule="nonzero"/><path fill="#87d8f7" d="M 12.164062 17.09375 C 12.105469 17.09375 12.046875 17.074219 11.996094 17.035156 C 9.425781 14.914062 7.503906 12.464844 6.117188 9.542969 C 6.066406 9.433594 6.09375 9.300781 6.183594 9.222656 L 7.25 8.308594 C 7.300781 8.269531 7.359375 8.246094 7.417969 8.246094 C 7.472656 8.246094 7.523438 8.261719 7.570312 8.296875 C 10.1875 10.164062 12.257812 12.488281 13.898438 15.40625 C 13.960938 15.519531 13.9375 15.660156 13.839844 15.742188 L 12.332031 17.03125 C 12.28125 17.074219 12.222656 17.09375 12.164062 17.09375 " fill-opacity="1" fill-rule="nonzero"/><path fill="#3f5182" d="M 7.417969 7.980469 C 7.300781 7.980469 7.179688 8.023438 7.082031 8.109375 L 6.546875 8.566406 L 6.015625 9.023438 C 5.832031 9.179688 5.777344 9.4375 5.878906 9.65625 C 7.285156 12.613281 9.230469 15.097656 11.832031 17.242188 C 11.925781 17.320312 12.046875 17.359375 12.164062 17.359375 C 12.28125 17.359375 12.402344 17.320312 12.5 17.234375 L 13.253906 16.589844 L 14.011719 15.941406 C 14.203125 15.777344 14.25 15.496094 14.125 15.277344 C 12.464844 12.324219 10.371094 9.96875 7.722656 8.078125 C 7.628906 8.015625 7.523438 7.980469 7.417969 7.980469 M 7.417969 8.511719 C 10.015625 10.367188 12.078125 12.703125 13.671875 15.539062 L 12.917969 16.183594 L 12.164062 16.832031 C 9.664062 14.769531 7.730469 12.328125 6.351562 9.425781 L 6.886719 8.96875 L 7.417969 8.511719 " fill-opacity="1" fill-rule="nonzero"/><path fill="#87d8f7" d="M 17.328125 12.671875 C 17.269531 12.671875 17.210938 12.652344 17.164062 12.613281 C 14.59375 10.492188 12.667969 8.039062 11.28125 5.117188 C 11.230469 5.007812 11.257812 4.878906 11.347656 4.800781 L 12.417969 3.886719 C 12.464844 3.84375 12.523438 3.824219 12.585938 3.824219 C 12.636719 3.824219 12.691406 3.839844 12.734375 3.875 C 15.351562 5.742188 17.421875 8.066406 19.0625 10.984375 C 19.125 11.09375 19.101562 11.234375 19.007812 11.316406 L 17.496094 12.609375 C 17.449219 12.652344 17.386719 12.671875 17.328125 12.671875 " fill-opacity="1" fill-rule="nonzero"/><path fill="#3f5182" d="M 12.585938 3.558594 C 12.464844 3.558594 12.34375 3.601562 12.246094 3.683594 L 11.714844 4.140625 L 11.179688 4.597656 C 10.996094 4.753906 10.941406 5.015625 11.046875 5.234375 C 12.449219 8.191406 14.394531 10.671875 16.996094 12.816406 C 17.09375 12.898438 17.210938 12.9375 17.328125 12.9375 C 17.449219 12.9375 17.566406 12.894531 17.664062 12.8125 L 18.421875 12.164062 L 19.175781 11.519531 C 19.367188 11.355469 19.417969 11.074219 19.292969 10.851562 C 17.632812 7.902344 15.535156 5.546875 12.886719 3.65625 C 12.796875 3.589844 12.691406 3.558594 12.585938 3.558594 M 12.585938 4.089844 C 15.183594 5.941406 17.242188 8.28125 18.835938 11.113281 L 18.082031 11.761719 L 17.328125 12.40625 C 14.832031 10.347656 12.894531 7.902344 11.519531 5.003906 L 12.050781 4.546875 L 12.585938 4.089844 " fill-opacity="1" fill-rule="nonzero"/><path fill="#47c3f3" d="M 16.816406 10.53125 C 15.8125 8.542969 14.585938 6.757812 13.167969 5.207031 C 12.890625 4.90625 12.605469 4.609375 12.3125 4.324219 L 12.585938 4.089844 C 13.484375 4.730469 14.316406 5.433594 15.089844 6.191406 C 15.421875 7.113281 15.910156 7.992188 16.566406 8.773438 C 16.894531 9.164062 17.25 9.519531 17.628906 9.832031 L 16.816406 10.53125 " fill-opacity="1" fill-rule="nonzero"/><path fill="#47c3f3" d="M 11.089844 15.433594 C 10.84375 15.003906 10.558594 14.589844 10.230469 14.199219 C 9.59375 13.433594 8.84375 12.8125 8.023438 12.335938 C 7.394531 11.421875 6.839844 10.453125 6.351562 9.425781 L 6.625 9.191406 C 6.855469 9.535156 7.097656 9.867188 7.34375 10.191406 C 8.621094 11.867188 10.15625 13.382812 11.925781 14.714844 L 11.089844 15.433594 " fill-opacity="1" fill-rule="nonzero"/><path fill="#2e5183" d="M 8.023438 12.335938 C 8 12.324219 7.980469 12.308594 7.957031 12.296875 C 7.347656 11.398438 6.804688 10.453125 6.328125 9.449219 L 6.625 9.191406 L 6.351562 9.425781 C 6.839844 10.453125 7.394531 11.421875 8.023438 12.335938 " fill-opacity="1" fill-rule="nonzero"/><path fill="#87d8f7" d="M 12.164062 17.09375 C 12.105469 17.09375 12.046875 17.074219 11.996094 17.035156 C 11.679688 16.773438 11.359375 16.496094 11.046875 16.207031 C 10.992188 16.15625 10.960938 16.082031 10.960938 16.007812 C 10.960938 15.929688 10.996094 15.859375 11.054688 15.808594 L 12.859375 14.261719 C 12.90625 14.222656 12.96875 14.199219 13.03125 14.199219 C 13.042969 14.199219 13.054688 14.203125 13.070312 14.203125 C 13.144531 14.214844 13.210938 14.257812 13.25 14.320312 C 13.476562 14.679688 13.695312 15.046875 13.898438 15.40625 C 13.960938 15.519531 13.9375 15.660156 13.839844 15.742188 L 12.332031 17.03125 C 12.28125 17.074219 12.222656 17.09375 12.164062 17.09375 " fill-opacity="1" fill-rule="nonzero"/><path fill="#3f5182" d="M 13.03125 13.933594 C 12.90625 13.933594 12.785156 13.980469 12.691406 14.058594 L 10.886719 15.609375 C 10.769531 15.707031 10.703125 15.851562 10.699219 16.003906 C 10.695312 16.15625 10.757812 16.300781 10.871094 16.40625 C 11.1875 16.695312 11.507812 16.976562 11.832031 17.242188 C 11.925781 17.320312 12.046875 17.359375 12.164062 17.359375 C 12.28125 17.359375 12.402344 17.320312 12.5 17.234375 L 14.011719 15.941406 C 14.203125 15.777344 14.25 15.496094 14.125 15.277344 C 13.921875 14.910156 13.699219 14.542969 13.46875 14.179688 C 13.390625 14.050781 13.257812 13.964844 13.109375 13.941406 C 13.082031 13.9375 13.054688 13.933594 13.03125 13.933594 M 13.03125 14.464844 C 13.25 14.8125 13.464844 15.171875 13.671875 15.539062 L 12.164062 16.832031 C 11.839844 16.566406 11.527344 16.292969 11.222656 16.011719 L 13.03125 14.464844 " fill-opacity="1" fill-rule="nonzero"/><path fill="#87d8f7" d="M 17.328125 12.671875 C 17.269531 12.671875 17.210938 12.652344 17.164062 12.613281 C 16.847656 12.351562 16.527344 12.074219 16.210938 11.785156 C 16.15625 11.734375 16.125 11.660156 16.125 11.585938 C 16.128906 11.507812 16.160156 11.4375 16.21875 11.386719 L 18.027344 9.839844 C 18.074219 9.800781 18.132812 9.777344 18.195312 9.777344 C 18.207031 9.777344 18.222656 9.777344 18.234375 9.78125 C 18.308594 9.792969 18.375 9.835938 18.414062 9.898438 C 18.644531 10.261719 18.863281 10.625 19.0625 10.984375 C 19.125 11.09375 19.101562 11.234375 19.007812 11.316406 L 17.496094 12.609375 C 17.449219 12.652344 17.386719 12.671875 17.328125 12.671875 " fill-opacity="1" fill-rule="nonzero"/><path fill="#3f5182" d="M 18.195312 9.511719 C 18.070312 9.511719 17.953125 9.554688 17.855469 9.636719 L 16.050781 11.183594 C 15.933594 11.285156 15.867188 11.425781 15.863281 11.578125 C 15.863281 11.734375 15.925781 11.878906 16.035156 11.980469 C 16.355469 12.273438 16.675781 12.554688 16.996094 12.816406 C 17.09375 12.898438 17.210938 12.9375 17.328125 12.9375 C 17.449219 12.9375 17.566406 12.894531 17.664062 12.8125 L 19.175781 11.519531 C 19.367188 11.355469 19.417969 11.074219 19.292969 10.855469 C 19.085938 10.488281 18.867188 10.121094 18.636719 9.753906 C 18.554688 9.628906 18.421875 9.539062 18.273438 9.519531 C 18.246094 9.515625 18.21875 9.511719 18.195312 9.511719 M 18.195312 10.042969 C 18.417969 10.390625 18.632812 10.75 18.835938 11.113281 L 17.328125 12.40625 C 17.003906 12.140625 16.691406 11.867188 16.386719 11.589844 L 18.195312 10.042969 " fill-opacity="1" fill-rule="nonzero"/><path fill="#87d8f7" d="M 13.246094 15.273438 C 13.195312 15.273438 13.144531 15.257812 13.097656 15.230469 C 8.660156 12.214844 5.6875 8.296875 4.015625 3.253906 C 3.980469 3.152344 4.011719 3.039062 4.09375 2.96875 L 6.664062 0.765625 C 6.714844 0.722656 6.773438 0.699219 6.835938 0.699219 C 6.878906 0.699219 6.917969 0.710938 6.957031 0.734375 C 11.597656 3.238281 14.921875 6.855469 17.121094 11.785156 C 17.167969 11.890625 17.140625 12.019531 17.050781 12.097656 L 13.414062 15.210938 C 13.363281 15.253906 13.304688 15.273438 13.246094 15.273438 " fill-opacity="1" fill-rule="nonzero"/><g clip-path="url(#id2)"><path fill="#3f5182" d="M 6.835938 0.4375 C 6.714844 0.4375 6.59375 0.480469 6.496094 0.5625 L 5.210938 1.664062 L 3.921875 2.765625 C 3.761719 2.90625 3.699219 3.132812 3.765625 3.339844 C 4.605469 5.875 5.8125 8.179688 7.34375 10.191406 C 8.859375 12.183594 10.746094 13.949219 12.953125 15.449219 C 13.042969 15.507812 13.144531 15.539062 13.246094 15.539062 C 13.363281 15.539062 13.484375 15.496094 13.582031 15.414062 L 17.222656 12.296875 C 17.398438 12.144531 17.457031 11.890625 17.359375 11.675781 C 16.265625 9.226562 14.855469 7.050781 13.167969 5.207031 C 11.460938 3.34375 9.414062 1.757812 7.082031 0.5 C 7.003906 0.457031 6.917969 0.4375 6.835938 0.4375 M 6.835938 0.964844 C 11.441406 3.457031 14.742188 7.101562 16.882812 11.894531 L 15.0625 13.449219 L 13.246094 15.007812 C 8.929688 12.078125 5.925781 8.179688 4.261719 3.167969 L 6.835938 0.964844 " fill-opacity="1" fill-rule="nonzero"/></g><path fill="#47c3f3" d="M 12.472656 14.464844 C 12.449219 14.449219 12.429688 14.429688 12.40625 14.414062 C 13.507812 11.546875 13.082031 8.144531 11.011719 5.664062 C 10.65625 5.238281 10.265625 4.859375 9.847656 4.519531 C 9.777344 4.324219 9.671875 4.140625 9.53125 3.972656 C 9.183594 3.558594 8.675781 3.320312 8.136719 3.320312 C 8.050781 3.320312 7.964844 3.324219 7.878906 3.339844 C 6.921875 2.925781 5.898438 2.699219 4.867188 2.652344 L 5.546875 2.066406 L 6.835938 0.964844 C 11.160156 3.304688 14.335938 6.664062 16.480469 11.03125 C 16.441406 11.050781 16.402344 11.074219 16.367188 11.105469 L 12.5625 14.363281 C 12.527344 14.394531 12.5 14.425781 12.472656 14.464844 " fill-opacity="1" fill-rule="nonzero"/><path fill="#788ace" d="M 13.808594 15.683594 C 13.761719 15.683594 13.707031 15.667969 13.664062 15.636719 C 13.363281 15.433594 13.054688 15.214844 12.746094 14.984375 C 12.679688 14.933594 12.640625 14.859375 12.636719 14.777344 C 12.636719 14.699219 12.671875 14.617188 12.730469 14.566406 L 16.539062 11.308594 C 16.585938 11.265625 16.644531 11.246094 16.707031 11.246094 C 16.722656 11.246094 16.742188 11.246094 16.757812 11.25 C 16.835938 11.265625 16.902344 11.316406 16.941406 11.390625 C 17.121094 11.75 17.277344 12.085938 17.425781 12.417969 C 17.472656 12.527344 17.445312 12.652344 17.355469 12.726562 L 13.980469 15.621094 C 13.929688 15.660156 13.871094 15.683594 13.808594 15.683594 " fill-opacity="1" fill-rule="nonzero"/><path fill="#3f5182" d="M 16.707031 10.980469 C 16.582031 10.980469 16.464844 11.023438 16.367188 11.105469 L 12.5625 14.363281 C 12.441406 14.46875 12.371094 14.625 12.375 14.785156 C 12.382812 14.949219 12.460938 15.097656 12.589844 15.195312 C 12.902344 15.429688 13.214844 15.652344 13.519531 15.859375 C 13.609375 15.917969 13.707031 15.945312 13.808594 15.945312 C 13.929688 15.945312 14.050781 15.90625 14.148438 15.820312 L 17.523438 12.929688 C 17.703125 12.777344 17.761719 12.523438 17.664062 12.308594 C 17.515625 11.976562 17.355469 11.636719 17.171875 11.269531 C 17.101562 11.125 16.96875 11.023438 16.808594 10.992188 C 16.777344 10.984375 16.742188 10.980469 16.707031 10.980469 M 16.707031 11.511719 C 16.871094 11.84375 17.03125 12.179688 17.1875 12.527344 L 13.808594 15.417969 C 13.5 15.207031 13.195312 14.992188 12.898438 14.769531 L 16.707031 11.511719 " fill-opacity="1" fill-rule="nonzero"/><path fill="#475fb5" d="M 13.972656 15.277344 C 14.175781 14.695312 14.320312 14.09375 14.398438 13.488281 L 16.707031 11.511719 C 16.871094 11.84375 17.03125 12.179688 17.1875 12.527344 L 13.972656 15.277344 " fill-opacity="1" fill-rule="nonzero"/><path fill="#31417a" d="M 13.972656 15.277344 L 17.1875 12.527344 L 13.972656 15.277344 M 14.398438 13.488281 L 16.707031 11.511719 L 14.398438 13.488281 " fill-opacity="1" fill-rule="nonzero"/><path fill="#ffffff" d="M 8.136719 6.746094 C 7.679688 6.746094 7.242188 6.542969 6.945312 6.1875 C 6.675781 5.863281 6.546875 5.453125 6.582031 5.035156 C 6.617188 4.613281 6.808594 4.230469 7.128906 3.957031 C 7.410156 3.71875 7.769531 3.585938 8.136719 3.585938 C 8.597656 3.585938 9.03125 3.789062 9.328125 4.144531 C 9.886719 4.808594 9.804688 5.808594 9.148438 6.371094 C 8.863281 6.613281 8.507812 6.746094 8.136719 6.746094 " fill-opacity="1" fill-rule="nonzero"/><path fill="#3f5182" d="M 8.136719 3.320312 C 7.707031 3.320312 7.289062 3.472656 6.960938 3.757812 C 6.585938 4.074219 6.359375 4.519531 6.320312 5.011719 C 6.28125 5.503906 6.429688 5.980469 6.746094 6.359375 C 7.09375 6.773438 7.601562 7.011719 8.136719 7.011719 C 8.570312 7.011719 8.988281 6.855469 9.316406 6.574219 C 10.082031 5.917969 10.179688 4.75 9.53125 3.972656 C 9.183594 3.558594 8.675781 3.320312 8.136719 3.320312 M 8.136719 3.847656 C 8.507812 3.847656 8.875 4.007812 9.132812 4.316406 C 9.59375 4.871094 9.527344 5.699219 8.976562 6.171875 C 8.734375 6.378906 8.433594 6.480469 8.136719 6.480469 C 7.769531 6.480469 7.402344 6.324219 7.144531 6.015625 C 6.679688 5.460938 6.75 4.628906 7.296875 4.160156 C 7.542969 3.949219 7.839844 3.847656 8.136719 3.847656 " fill-opacity="1" fill-rule="nonzero"/><path fill="#86d8f7" d="M 7.65625 5.703125 C 7.492188 5.703125 7.328125 5.632812 7.210938 5.492188 C 7.003906 5.246094 7.035156 4.871094 7.28125 4.664062 C 7.390625 4.570312 7.523438 4.523438 7.65625 4.523438 C 7.820312 4.523438 7.984375 4.59375 8.101562 4.730469 C 8.308594 4.980469 8.277344 5.351562 8.03125 5.5625 C 7.921875 5.65625 7.789062 5.703125 7.65625 5.703125 " fill-opacity="1" fill-rule="nonzero"/><g clip-path="url(#id3)"><path fill="#f5834c" d="M 4.003906 3.125 C 3.960938 3.125 3.917969 3.117188 3.882812 3.09375 C 3.785156 3.042969 3.730469 2.941406 3.746094 2.832031 L 4 0.5 C 4.015625 0.363281 4.128906 0.265625 4.261719 0.265625 L 4.277344 0.265625 L 6.589844 0.394531 C 6.699219 0.398438 6.792969 0.472656 6.824219 0.574219 C 6.859375 0.675781 6.828125 0.789062 6.746094 0.859375 L 4.171875 3.0625 C 4.125 3.105469 4.066406 3.125 4.003906 3.125 " fill-opacity="1" fill-rule="nonzero"/></g><g clip-path="url(#id4)"><path fill="#3f5182" d="M 4.261719 0 C 3.996094 0 3.773438 0.199219 3.742188 0.46875 L 3.484375 2.800781 C 3.460938 3.019531 3.570312 3.226562 3.757812 3.328125 C 3.835938 3.371094 3.921875 3.390625 4.003906 3.390625 C 4.125 3.390625 4.246094 3.347656 4.34375 3.265625 L 6.914062 1.0625 C 7.078125 0.921875 7.140625 0.695312 7.074219 0.488281 C 7.007812 0.285156 6.820312 0.140625 6.605469 0.128906 L 4.289062 0 C 4.28125 0 4.269531 0 4.261719 0 Z M 4.261719 0.527344 L 6.578125 0.65625 L 4.003906 2.863281 L 4.261719 0.527344 " fill-opacity="1" fill-rule="nonzero"/><path fill="#788ace" d="M 4.261719 3.433594 L 4.238281 3.433594 C 4.171875 3.425781 4.105469 3.394531 4.0625 3.339844 L 3.804688 3.03125 C 3.710938 2.921875 3.726562 2.753906 3.835938 2.660156 L 6.410156 0.457031 C 6.457031 0.414062 6.515625 0.394531 6.578125 0.394531 L 6.597656 0.394531 C 6.667969 0.398438 6.734375 0.433594 6.777344 0.488281 L 7.035156 0.796875 C 7.128906 0.90625 7.113281 1.074219 7.003906 1.167969 L 4.429688 3.371094 C 4.382812 3.414062 4.324219 3.433594 4.261719 3.433594 " fill-opacity="1" fill-rule="nonzero"/><path fill="#3f5182" d="M 6.578125 0.128906 C 6.453125 0.128906 6.335938 0.171875 6.238281 0.253906 L 3.667969 2.457031 C 3.445312 2.644531 3.417969 2.980469 3.605469 3.203125 L 3.863281 3.511719 C 3.953125 3.617188 4.078125 3.683594 4.21875 3.699219 C 4.234375 3.699219 4.246094 3.699219 4.261719 3.699219 C 4.386719 3.699219 4.503906 3.65625 4.597656 3.574219 L 7.171875 1.371094 C 7.394531 1.183594 7.421875 0.847656 7.234375 0.625 L 6.976562 0.316406 C 6.886719 0.207031 6.757812 0.140625 6.621094 0.128906 C 6.605469 0.128906 6.589844 0.128906 6.578125 0.128906 Z M 6.578125 0.65625 L 6.835938 0.964844 L 4.261719 3.167969 L 4.003906 2.863281 L 6.578125 0.65625 " fill-opacity="1" fill-rule="nonzero"/></g></svg>